<?xml version="1.0" standalone="no"?>
<!DOCTYPE svg PUBLIC "-//W3C//DTD SVG 20010904//EN"
 "http://www.w3.org/TR/2001/REC-SVG-20010904/DTD/svg10.dtd">
<svg version="1.0" xmlns="http://www.w3.org/2000/svg"
 width="1024.000000pt" height="1024.000000pt" viewBox="0 0 1024.000000 1024.000000"
 preserveAspectRatio="xMidYMid meet">

<g transform="translate(0.000000,1024.000000) scale(0.100000,-0.100000)"
fill="#000000" stroke="none">
<path d="M4815 8679 c-439 -33 -897 -160 -1290 -357 -338 -169 -620 -371 -903
-646 -697 -678 -1072 -1573 -1072 -2556 0 -838 261 -1586 779 -2235 116 -145
387 -419 532 -538 537 -438 1150 -695 1854 -779 146 -17 664 -17 810 0 809 96
1508 427 2083 987 290 282 522 593 695 933 221 434 338 851 378 1347 13 156 7
556 -11 700 -82 695 -341 1309 -777 1844 -120 147 -393 417 -545 538 -563 450
-1222 709 -1943 763 -160 11 -428 11 -590 -1z m735 -128 c518 -67 978 -234
1425 -515 418 -263 740 -581 1034 -1021 290 -434 470 -929 547 -1500 27 -201
25 -629 -5 -835 -88 -612 -285 -1102 -653 -1616 -219 -307 -504 -583 -830
-805 -64 -43 -119 -79 -121 -79 -3 0 -40 -20 -82 -45 -668 -395 -1485 -552
-2258 -435 -1275 194 -2342 1086 -2761 2308 -258 752 -244 1567 40 2337 73
198 216 476 342 665 139 209 252 350 417 519 591 608 1365 970 2220 1041 167
13 506 4 685 -19z"/>
<path d="M4875 8464 c-289 -28 -407 -47 -595 -94 -729 -184 -1379 -622 -1850
-1246 -358 -474 -567 -998 -642 -1614 -17 -139 -17 -651 0 -790 89 -724 367
-1334 851 -1866 554 -610 1263 -975 2091 -1076 139 -17 651 -17 790 0 828 101
1537 466 2091 1076 484 532 762 1142 851 1866 17 139 17 651 0 790 -88 723
-365 1331 -847 1863 -542 598 -1246 967 -2046 1073 -108 14 -602 27 -694 18z
m470 -204 c577 -50 1142 -255 1605 -584 291 -206 519 -433 729 -724 57 -81
192 -295 187 -299 -2 -2 -25 6 -51 18 -57 25 -100 22 -178 -14 -73 -33 -131
-87 -162 -151 l-26 -53 5 -547 c4 -393 9 -552 17 -569 26 -48 64 -89 106 -114
41 -24 50 -25 131 -20 150 10 317 87 377 175 l25 37 0 243 c0 198 3 248 15
272 9 17 20 30 24 30 24 0 102 -407 121 -625 52 -611 -121 -1299 -468 -1870
-519 -852 -1432 -1407 -2457 -1495 -469 -40 -1008 57 -1483 266 -693 306
-1233 823 -1562 1499 -64 132 -123 275 -117 282 3 2 21 -6 42 -18 29 -17 59
-24 123 -27 153 -8 280 38 352 129 62 78 68 114 70 381 1 128 1 236 1 240 -1
4 -20 -2 -43 -12 -28 -13 -66 -20 -105 -20 l-62 0 -3 -209 c-3 -208 -3 -210
-28 -236 -35 -38 -73 -55 -120 -55 -33 0 -48 6 -71 29 l-29 30 2 725 3 725 35
36 c43 44 97 61 146 45 63 -21 67 -36 62 -255 -2 -107 -3 -195 -1 -195 3 0 29
11 60 25 30 14 77 30 104 36 l49 11 0 197 c0 224 -10 278 -63 338 -17 20 -50
44 -72 54 -50 23 -149 25 -230 4 -144 -38 -225 -99 -279 -214 l-31 -66 -5
-705 -5 -705 -27 110 c-75 302 -102 626 -77 922 85 1021 643 1936 1494 2455
571 347 1259 520 1870 468z m2489 -1784 c47 -19 60 -59 53 -156 -5 -77 -4 -80
16 -80 12 0 46 12 76 25 32 15 58 22 63 17 14 -14 89 -233 83 -242 -8 -12
-175 -37 -292 -42 l-53 -3 0 -108 0 -108 35 7 c72 13 67 25 65 -150 0 -87 -5
-167 -10 -176 -24 -45 -154 -66 -188 -30 -18 19 -19 41 -14 503 4 475 5 482
26 506 21 24 70 50 94 51 7 0 27 -6 46 -14z"/>
<path d="M5060 7887 c-62 -15 -94 -30 -128 -61 -82 -73 -76 -213 11 -293 44
-41 97 -63 197 -84 101 -21 136 -55 110 -105 -15 -26 -50 -42 -100 -45 -63 -3
-77 1 -123 36 -56 43 -80 44 -118 6 -42 -42 -37 -66 24 -126 62 -62 107 -79
217 -78 85 1 131 17 185 65 96 84 110 216 32 304 -39 46 -84 68 -188 93 -83
21 -122 41 -143 74 -8 13 -6 22 11 39 17 17 37 23 85 26 58 3 66 1 108 -29
l44 -32 43 49 c24 26 43 51 43 55 0 15 -57 61 -104 84 -64 31 -133 39 -206 22z"/>
<path d="M5810 7749 c0 -79 -111 -512 -152 -592 -10 -21 -18 -43 -16 -49 4
-12 157 -58 162 -49 2 3 7 22 11 41 4 19 24 91 46 160 21 69 50 180 64 247 25
126 42 171 78 211 18 20 19 24 7 32 -8 5 -28 10 -45 10 -16 0 -55 7 -85 15
-30 8 -58 15 -62 15 -5 0 -8 -19 -8 -41z"/>
<path d="M4234 7753 l-71 -25 -7 -206 c-4 -114 -11 -283 -17 -376 -5 -93 -8
-170 -6 -172 4 -5 106 29 136 45 18 10 21 21 21 76 0 76 -5 72 134 110 l98 26
23 -21 c12 -12 31 -39 41 -62 l18 -40 56 5 c69 8 122 26 118 41 -10 37 -446
627 -462 625 -6 -1 -43 -13 -82 -26z m119 -256 c15 -23 38 -57 52 -76 14 -19
25 -40 25 -47 0 -12 -85 -44 -117 -44 -8 0 -13 13 -13 38 0 61 12 172 19 172
3 0 18 -20 34 -43z"/>
<path d="M6387 7445 c-90 -25 -166 -97 -228 -215 -20 -38 -24 -60 -24 -140 0
-87 3 -100 32 -156 40 -77 114 -145 183 -167 85 -28 141 -19 223 33 55 34 59
54 21 100 l-27 31 -76 -6 c-71 -6 -79 -5 -117 21 -56 36 -74 70 -74 138 0 102
72 192 170 216 105 25 177 -22 204 -132 3 -15 15 -32 26 -38 17 -9 28 -4 75
37 30 26 55 53 55 59 0 16 -60 104 -99 142 -18 19 -61 47 -95 63 -50 24 -73
29 -131 28 -38 0 -92 -7 -118 -14z"/>
<path d="M3513 7441 c-46 -12 -359 -198 -374 -223 -5 -7 16 -35 49 -67 71 -69
311 -419 347 -503 18 -45 26 -46 68 -14 18 13 75 50 127 81 136 82 165 108
199 177 47 94 39 191 -22 257 -28 30 -93 60 -132 61 -30 0 -30 0 -30 58 0 63
-21 103 -78 146 -36 27 -105 39 -154 27z m67 -171 c30 -30 25 -61 -17 -101
-48 -45 -97 -79 -115 -79 -15 0 -68 71 -68 92 0 14 34 39 110 82 54 31 64 32
90 6z m211 -231 c21 -29 21 -33 6 -64 -10 -22 -43 -52 -91 -84 -41 -28 -79
-51 -85 -51 -15 0 -83 101 -77 115 2 7 40 36 82 64 95 62 132 67 165 20z"/>
<path d="M7215 6610 c-38 -10 -92 -19 -118 -19 -52 -1 -87 -15 -87 -33 0 -7
11 -24 25 -38 l25 -26 5 -259 c2 -143 7 -320 11 -392 3 -74 3 -133 -2 -133 -5
0 -21 42 -35 93 -15 50 -61 189 -104 307 -143 397 -129 348 -109 386 30 55 12
61 -93 36 -48 -12 -108 -24 -133 -28 -80 -12 -98 -31 -59 -63 12 -9 24 -36 29
-61 4 -25 7 -312 5 -638 l-2 -592 -28 -41 c-22 -35 -25 -44 -13 -55 11 -10 32
-10 123 2 158 22 179 27 183 45 2 9 -10 30 -26 46 -29 29 -30 31 -37 179 -9
176 0 473 15 488 7 7 10 5 10 -4 0 -8 48 -132 106 -275 131 -321 136 -338 123
-372 -14 -38 -5 -54 28 -47 15 3 77 11 137 17 131 15 148 28 101 77 l-30 31
-3 622 c-1 342 0 632 3 644 3 13 20 39 37 59 31 35 31 37 13 50 -10 8 -21 13
-24 13 -3 -1 -37 -9 -76 -19z"/>
<path d="M6343 6460 c-12 -5 -72 -16 -133 -26 -127 -19 -140 -30 -91 -74 l31
-29 -4 -626 c-5 -673 -2 -625 -50 -690 -5 -7 -6 -20 -2 -30 5 -14 13 -16 44
-11 62 11 154 25 214 31 67 7 78 23 44 68 -12 18 -26 39 -29 49 -3 9 -7 288
-8 621 l-2 604 26 46 c15 25 27 53 27 61 0 18 -31 20 -67 6z"/>
<path d="M5845 6378 c-55 -11 -116 -23 -135 -26 -41 -8 -51 -34 -24 -63 24
-26 13 -60 -88 -275 -43 -95 -88 -198 -99 -230 l-19 -59 4 231 c3 235 4 245
46 310 7 12 10 29 7 37 -5 15 -11 15 -54 2 -26 -8 -91 -21 -143 -30 -52 -9
-102 -23 -110 -31 -13 -14 -13 -17 6 -33 45 -37 45 -31 39 -628 -3 -313 -8
-590 -11 -618 -3 -31 -15 -62 -30 -82 -47 -62 -29 -82 54 -57 31 9 100 24 152
33 90 15 95 17 98 42 2 19 -6 35 -27 57 l-31 30 0 150 c0 146 1 151 30 208 16
32 30 65 30 72 0 29 20 8 38 -41 11 -29 38 -96 60 -148 23 -52 49 -124 58
-161 17 -65 17 -68 -1 -102 -17 -32 -18 -38 -5 -51 13 -12 25 -12 100 4 47 11
112 22 145 26 60 7 95 26 95 51 0 7 -19 26 -42 41 -42 28 -47 37 -155 298 -61
149 -121 300 -133 336 l-21 65 36 90 c20 49 48 108 61 132 14 23 36 71 49 107
41 107 114 246 147 275 35 32 32 61 -4 59 -13 -1 -68 -11 -123 -21z"/>
<path d="M4756 6160 c-16 -5 -63 -14 -105 -20 -42 -7 -87 -18 -100 -27 l-23
-15 28 -29 27 -28 -2 -623 -2 -623 -30 -52 c-29 -51 -30 -52 -9 -63 14 -8 31
-8 59 0 76 20 442 90 474 90 18 0 37 4 43 8 8 4 13 57 15 147 l4 140 -30 0
c-25 0 -34 -7 -53 -42 -20 -37 -31 -45 -75 -57 -78 -22 -168 -38 -174 -32 -10
10 -15 889 -6 1019 9 119 11 129 37 156 48 50 8 76 -78 51z"/>
<path d="M4300 6070 c-41 -10 -93 -22 -115 -27 -47 -10 -57 -34 -26 -67 22
-23 22 -23 19 -589 l-3 -565 -23 -25 c-23 -24 -81 -47 -121 -47 -11 0 -30 9
-41 20 -20 20 -20 33 -20 573 l0 552 26 38 c20 31 23 41 14 53 -16 18 -30 18
-91 -2 -27 -9 -84 -24 -126 -33 -94 -20 -112 -40 -68 -75 l30 -24 5 -599 5
-600 27 -35 c50 -65 91 -83 188 -82 175 1 289 63 361 196 l34 63 5 596 5 596
27 38 c48 67 23 77 -112 45z"/>
<path d="M3352 5839 c-13 -5 -69 -18 -125 -29 -146 -29 -144 -28 -151 -45 -3
-8 6 -26 19 -41 36 -39 35 -56 -25 -369 -12 -60 -39 -209 -60 -330 -52 -291
-113 -584 -130 -615 -7 -14 -22 -35 -33 -47 -22 -25 -17 -53 10 -53 10 0 52 9
93 20 41 11 101 22 133 26 53 6 57 8 57 32 0 14 -10 36 -22 49 -22 23 -22 24
-6 124 9 55 18 103 20 105 13 12 237 42 238 32 0 -2 7 -41 14 -88 15 -88 14
-97 -24 -157 -31 -49 4 -47 298 13 38 8 38 32 -1 71 -20 19 -38 42 -41 51 -7
23 -77 377 -121 607 -20 105 -50 257 -66 338 -35 179 -37 228 -8 266 12 16 18
34 15 40 -9 13 -52 13 -84 0z m-73 -586 c7 -49 23 -144 36 -213 13 -69 20
-128 16 -132 -8 -9 -144 -38 -150 -33 -14 14 64 465 80 465 3 0 12 -39 18 -87z"/>
<path d="M5053 4488 c-6 -7 -42 -78 -80 -158 -39 -80 -108 -219 -153 -310
-143 -291 -157 -337 -139 -464 18 -127 69 -210 184 -295 122 -91 350 -95 498
-8 53 31 140 124 168 179 11 22 27 72 35 111 25 120 -6 245 -97 384 -19 28
-55 84 -80 125 -49 77 -146 227 -236 366 -53 81 -78 98 -100 70z m386 -702
c24 -64 31 -152 18 -228 -12 -68 -73 -157 -138 -198 -48 -32 -61 -35 -124 -35
-62 1 -76 4 -123 34 -29 18 -56 41 -62 50 -8 16 -4 16 48 -2 92 -31 180 -8
248 65 46 48 70 102 84 188 11 66 11 82 -4 135 -10 33 -26 75 -37 93 -29 51
-23 51 25 2 26 -28 52 -69 65 -104z"/>
<path d="M6365 3570 c50 -17 110 -35 134 -41 61 -14 189 -71 259 -115 109 -69
182 -157 182 -220 0 -159 -368 -317 -948 -408 -864 -136 -1929 -82 -2327 117
-197 98 -206 190 -34 353 79 75 136 113 264 181 55 29 96 53 91 53 -20 0 -275
-83 -367 -120 -202 -81 -321 -153 -411 -248 -128 -133 -127 -246 1 -372 166
-163 554 -285 1101 -346 173 -19 854 -28 1055 -13 842 61 1535 257 1813 513
88 81 125 183 97 267 -31 92 -112 167 -265 244 -153 77 -295 116 -575 160 -55
8 -113 17 -130 20 -16 2 11 -9 60 -25z"/>
<path d="M6114 3481 c3 -5 32 -26 63 -47 142 -92 153 -138 50 -198 -287 -168
-1377 -226 -1906 -100 -57 13 -124 33 -150 45 -51 22 -101 65 -101 86 0 22 29
74 67 121 20 24 33 45 30 48 -13 13 -184 -59 -252 -106 -133 -92 -108 -195 69
-280 122 -58 314 -105 536 -130 52 -6 106 -14 120 -16 61 -12 635 -16 785 -5
587 43 1011 169 1091 324 46 87 -68 186 -277 242 -99 26 -134 31 -125 16z"/>
</g>
</svg>
